<svg width="514" height="514" viewBox="0 0 514 514" fill="none" xmlns="http://www.w3.org/2000/svg">
<path d="M439.857 1H74.1429C33.7472 1 1 33.7472 1 74.1429V439.857C1 480.253 33.7472 513 74.1429 513H439.857C480.253 513 513 480.253 513 439.857V74.1429C513 33.7472 480.253 1 439.857 1Z" fill="#D49A00" stroke="black" stroke-width="2"/>
<path d="M73.001 56.8574H441.001C455.142 56.8576 466.286 66.3952 466.286 77.7998V143.629C466.286 155.034 455.142 164.571 441.001 164.571H73.001C58.8594 164.571 47.7149 155.034 47.7148 143.629V77.7998C47.7152 66.3951 58.8595 56.8574 73.001 56.8574Z" fill="#4C8C84" stroke="black" stroke-width="2"/>
<path d="M101.572 212.285C131.317 212.285 155.429 236.398 155.429 266.143C155.429 295.887 131.317 319.999 101.572 319.999C71.8279 319.999 47.715 295.887 47.7148 266.143C47.7148 236.398 71.8278 212.285 101.572 212.285Z" fill="#FCECC1" stroke="black" stroke-width="2"/>
<path d="M101.572 340.285C131.317 340.285 155.429 364.398 155.429 394.143C155.429 423.887 131.317 447.999 101.572 447.999C71.8279 447.999 47.715 423.887 47.7148 394.143C47.7148 364.398 71.8278 340.285 101.572 340.285Z" fill="#FCECC1" stroke="black" stroke-width="2"/>
<path d="M247.857 212.285C277.602 212.285 301.714 236.398 301.714 266.143C301.714 295.887 277.602 319.999 247.857 319.999C218.113 319.999 194 295.887 194 266.143C194 236.398 218.113 212.285 247.857 212.285Z" fill="#FCECC1" stroke="black" stroke-width="2"/>
<path d="M247.857 340.285C277.602 340.285 301.714 364.398 301.714 394.143C301.714 423.887 277.602 447.999 247.857 447.999C218.113 447.999 194 423.887 194 394.143C194 364.398 218.113 340.285 247.857 340.285Z" fill="#FCECC1" stroke="black" stroke-width="2"/>
<rect x="340.285" y="212.285" width="126" height="235.714" rx="9" fill="#C75B39" stroke="black" stroke-width="2"/>
<path d="M403.292 304.285V345.627ZM381.959 324.956H424.626Z" fill="black"/>
<path d="M403.292 304.285V345.627M381.959 324.956H424.626" stroke="#FCECC1" stroke-width="10" stroke-linecap="round"/>
</svg>
